<svg xmlns="http://www.w3.org/2000/svg" viewBox="0 0 256 256" role="img" aria-labelledby="title">
  <title>한신의 운동일지 아이콘</title>
  <defs>
    <linearGradient id="bg" x1="0" y1="0" x2="1" y2="1">
      <stop offset="0%" stop-color="#F7D18B" />
      <stop offset="100%" stop-color="#DB6C3F" />
    </linearGradient>
  </defs>
  <rect width="256" height="256" rx="64" fill="#17382f" />
  <circle cx="84" cy="92" r="26" fill="url(#bg)" />
  <circle cx="172" cy="92" r="26" fill="url(#bg)" />
  <rect x="84" y="82" width="88" height="20" rx="10" fill="#F8F2E8" />
  <path
    d="M78 144c0-10.5 8.5-19 19-19h62c10.5 0 19 8.5 19 19v0c0 10.5-8.5 19-19 19h-62c-10.5 0-19-8.5-19-19z"
    fill="#F8F2E8"
  />
  <path
    d="M128 176c-18.8 0-34-15.2-34-34h22c0 6.6 5.4 12 12 12s12-5.4 12-12h22c0 18.8-15.2 34-34 34z"
    fill="#F7D18B"
  />
</svg>
