<svg xmlns="http://www.w3.org/2000/svg" viewBox="0 0 800 520">
  <defs>
    <linearGradient id="bg" x1="0" y1="0" x2="1" y2="1">
      <stop offset="0%" stop-color="#fbf6ee"/>
      <stop offset="100%" stop-color="#eef4ef"/>
    </linearGradient>
    <linearGradient id="shirt" x1="0" y1="0" x2="1" y2="1">
      <stop offset="0%" stop-color="#3c826d"/>
      <stop offset="100%" stop-color="#214c40"/>
    </linearGradient>
  </defs>
  <rect width="800" height="520" fill="url(#bg)"/>
  <rect x="0" y="420" width="800" height="100" fill="#dbe7dd"/>
  <rect x="174" y="286" width="274" height="22" rx="11" fill="#203932"/>
  <rect x="188" y="308" width="18" height="102" rx="9" fill="#203932"/>
  <rect x="420" y="308" width="18" height="102" rx="9" fill="#203932"/>
  <rect x="126" y="146" width="392" height="12" rx="6" fill="#5f6d69"/>
  <circle cx="140" cy="152" r="22" fill="#db6c3f"/>
  <circle cx="504" cy="152" r="22" fill="#db6c3f"/>
  <ellipse cx="322" cy="270" rx="28" ry="24" fill="#e7b18b"/>
  <rect x="344" y="252" width="112" height="40" rx="20" fill="url(#shirt)"/>
  <rect x="436" y="258" width="38" height="34" rx="16" fill="#17382f"/>
  <path d="M346 270L274 226" fill="none" stroke="#e7b18b" stroke-width="20" stroke-linecap="round"/>
  <path d="M274 226L248 164" fill="none" stroke="#e7b18b" stroke-width="18" stroke-linecap="round"/>
  <path d="M456 270L514 226" fill="none" stroke="#e7b18b" stroke-width="20" stroke-linecap="round"/>
  <path d="M514 226L478 164" fill="none" stroke="#e7b18b" stroke-width="18" stroke-linecap="round"/>
  <path d="M470 290L528 336" fill="none" stroke="#17382f" stroke-width="24" stroke-linecap="round"/>
  <path d="M528 336L576 404" fill="none" stroke="#e7b18b" stroke-width="20" stroke-linecap="round"/>
  <path d="M460 290L404 336" fill="none" stroke="#17382f" stroke-width="24" stroke-linecap="round"/>
  <path d="M404 336L352 402" fill="none" stroke="#e7b18b" stroke-width="20" stroke-linecap="round"/>
  <ellipse cx="584" cy="408" rx="24" ry="10" fill="#203932"/>
  <ellipse cx="344" cy="406" rx="24" ry="10" fill="#203932"/>
  <path d="M250 164H478" fill="none" stroke="#6fab8d" stroke-width="8" stroke-dasharray="10 10"/>
  <text x="54" y="84" font-family="Arial, sans-serif" font-size="34" fill="#17382f">Bench Press</text>
  <text x="54" y="124" font-family="Arial, sans-serif" font-size="18" fill="#687369">Scapula set • feet drive • vertical forearm</text>
</svg>
