<svg xmlns="http://www.w3.org/2000/svg" viewBox="0 0 800 520">
  <defs>
    <linearGradient id="bg" x1="0" y1="0" x2="1" y2="1">
      <stop offset="0%" stop-color="#faf5ec"/>
      <stop offset="100%" stop-color="#edf3ef"/>
    </linearGradient>
    <linearGradient id="shirt" x1="0" y1="0" x2="1" y2="1">
      <stop offset="0%" stop-color="#4c8b78"/>
      <stop offset="100%" stop-color="#21493d"/>
    </linearGradient>
  </defs>
  <rect width="800" height="520" fill="url(#bg)"/>
  <rect x="0" y="420" width="800" height="100" fill="#dbe7dd"/>
  <rect x="156" y="286" width="184" height="18" rx="9" fill="#203932"/>
  <rect x="182" y="304" width="18" height="108" rx="9" fill="#203932"/>
  <ellipse cx="404" cy="176" rx="28" ry="24" fill="#e7b18b"/>
  <rect x="378" y="196" width="112" height="44" rx="22" fill="url(#shirt)" transform="rotate(18 434 218)"/>
  <rect x="452" y="236" width="42" height="34" rx="17" fill="#17382f"/>
  <path d="M394 210L316 242" fill="none" stroke="#e7b18b" stroke-width="18" stroke-linecap="round"/>
  <path d="M316 242L252 242" fill="none" stroke="#e7b18b" stroke-width="16" stroke-linecap="round"/>
  <path d="M462 234L542 214" fill="none" stroke="#e7b18b" stroke-width="18" stroke-linecap="round"/>
  <path d="M542 214L566 214" fill="none" stroke="#e7b18b" stroke-width="16" stroke-linecap="round"/>
  <circle cx="586" cy="214" r="18" fill="#db6c3f"/>
  <path d="M470 264L456 352" fill="none" stroke="#17382f" stroke-width="22" stroke-linecap="round"/>
  <path d="M456 352L502 408" fill="none" stroke="#e7b18b" stroke-width="18" stroke-linecap="round"/>
  <path d="M406 240L326 322" fill="none" stroke="#17382f" stroke-width="22" stroke-linecap="round"/>
  <path d="M326 322L258 408" fill="none" stroke="#e7b18b" stroke-width="18" stroke-linecap="round"/>
  <ellipse cx="508" cy="412" rx="24" ry="10" fill="#203932"/>
  <ellipse cx="252" cy="412" rx="24" ry="10" fill="#203932"/>
  <path d="M292 214H554" fill="none" stroke="#6fab8d" stroke-width="8" stroke-dasharray="10 10"/>
  <text x="54" y="84" font-family="Arial, sans-serif" font-size="34" fill="#17382f">Dumbbell Row</text>
  <text x="54" y="124" font-family="Arial, sans-serif" font-size="18" fill="#687369">Stable torso • elbow to hip</text>
</svg>
