<svg xmlns="http://www.w3.org/2000/svg" viewBox="0 0 800 520">
  <defs>
    <linearGradient id="bg" x1="0" y1="0" x2="1" y2="1">
      <stop offset="0%" stop-color="#fbf5ec"/>
      <stop offset="100%" stop-color="#eef4ef"/>
    </linearGradient>
    <linearGradient id="shirt" x1="0" y1="0" x2="1" y2="1">
      <stop offset="0%" stop-color="#407e6c"/>
      <stop offset="100%" stop-color="#1e463b"/>
    </linearGradient>
  </defs>
  <rect width="800" height="520" fill="url(#bg)"/>
  <rect x="0" y="420" width="800" height="100" fill="#dbe7dd"/>
  <path d="M194 372L392 236" fill="none" stroke="#203932" stroke-width="24" stroke-linecap="round"/>
  <path d="M188 404L204 372" fill="none" stroke="#203932" stroke-width="20" stroke-linecap="round"/>
  <path d="M392 236L426 396" fill="none" stroke="#203932" stroke-width="20" stroke-linecap="round"/>
  <ellipse cx="312" cy="202" rx="28" ry="24" fill="#e7b18b"/>
  <rect x="322" y="214" width="110" height="42" rx="21" fill="url(#shirt)" transform="rotate(32 377 235)"/>
  <rect x="390" y="250" width="40" height="34" rx="17" fill="#17382f"/>
  <path d="M340 234L304 166" fill="none" stroke="#e7b18b" stroke-width="18" stroke-linecap="round"/>
  <path d="M304 166L286 136" fill="none" stroke="#e7b18b" stroke-width="16" stroke-linecap="round"/>
  <path d="M390 270L446 188" fill="none" stroke="#e7b18b" stroke-width="18" stroke-linecap="round"/>
  <path d="M446 188L474 150" fill="none" stroke="#e7b18b" stroke-width="16" stroke-linecap="round"/>
  <circle cx="286" cy="132" r="16" fill="#db6c3f"/>
  <circle cx="478" cy="146" r="16" fill="#db6c3f"/>
  <path d="M416 286L474 376" fill="none" stroke="#17382f" stroke-width="22" stroke-linecap="round"/>
  <path d="M474 376L530 408" fill="none" stroke="#e7b18b" stroke-width="18" stroke-linecap="round"/>
  <path d="M408 282L352 360" fill="none" stroke="#17382f" stroke-width="22" stroke-linecap="round"/>
  <path d="M352 360L316 408" fill="none" stroke="#e7b18b" stroke-width="18" stroke-linecap="round"/>
  <ellipse cx="534" cy="412" rx="22" ry="10" fill="#203932"/>
  <ellipse cx="310" cy="412" rx="22" ry="10" fill="#203932"/>
  <text x="54" y="84" font-family="Arial, sans-serif" font-size="34" fill="#17382f">Incline Dumbbell Press</text>
  <text x="54" y="124" font-family="Arial, sans-serif" font-size="18" fill="#687369">Upper chest focus • controlled arc</text>
</svg>
