<svg xmlns="http://www.w3.org/2000/svg" viewBox="0 0 800 520">
  <defs>
    <linearGradient id="bg" x1="0" y1="0" x2="1" y2="1">
      <stop offset="0%" stop-color="#faf4eb"/>
      <stop offset="100%" stop-color="#edf3ef"/>
    </linearGradient>
    <linearGradient id="shirt" x1="0" y1="0" x2="1" y2="1">
      <stop offset="0%" stop-color="#508b77"/>
      <stop offset="100%" stop-color="#23493e"/>
    </linearGradient>
  </defs>
  <rect width="800" height="520" fill="url(#bg)"/>
  <rect x="0" y="420" width="800" height="100" fill="#dbe7dd"/>
  <rect x="122" y="300" width="150" height="18" rx="9" fill="#203932"/>
  <rect x="146" y="318" width="18" height="92" rx="9" fill="#203932"/>
  <path d="M648 138V410" fill="none" stroke="#5f6d69" stroke-width="16" stroke-linecap="round"/>
  <path d="M648 170H486" fill="none" stroke="#5f6d69" stroke-width="16" stroke-linecap="round"/>
  <path d="M486 170V212" fill="none" stroke="#5f6d69" stroke-width="8" stroke-dasharray="10 8"/>
  <ellipse cx="356" cy="208" rx="28" ry="24" fill="#e7b18b"/>
  <rect x="334" y="228" width="108" height="46" rx="23" fill="url(#shirt)"/>
  <rect x="346" y="268" width="54" height="34" rx="16" fill="#17382f"/>
  <path d="M344 244L284 218" fill="none" stroke="#e7b18b" stroke-width="18" stroke-linecap="round"/>
  <path d="M432 244L510 214" fill="none" stroke="#e7b18b" stroke-width="18" stroke-linecap="round"/>
  <path d="M510 214H548" fill="none" stroke="#e7b18b" stroke-width="16" stroke-linecap="round"/>
  <path d="M372 302L332 392" fill="none" stroke="#17382f" stroke-width="22" stroke-linecap="round"/>
  <path d="M332 392L270 408" fill="none" stroke="#e7b18b" stroke-width="18" stroke-linecap="round"/>
  <path d="M394 302L442 392" fill="none" stroke="#17382f" stroke-width="22" stroke-linecap="round"/>
  <path d="M442 392L510 408" fill="none" stroke="#e7b18b" stroke-width="18" stroke-linecap="round"/>
  <ellipse cx="262" cy="410" rx="22" ry="10" fill="#203932"/>
  <ellipse cx="518" cy="410" rx="22" ry="10" fill="#203932"/>
  <text x="54" y="84" font-family="Arial, sans-serif" font-size="34" fill="#17382f">Seated Row</text>
  <text x="54" y="124" font-family="Arial, sans-serif" font-size="18" fill="#687369">Chest up • pull elbows back</text>
</svg>
