<svg xmlns="http://www.w3.org/2000/svg" viewBox="0 0 800 520">
  <defs>
    <linearGradient id="bg" x1="0" y1="0" x2="1" y2="1">
      <stop offset="0%" stop-color="#fbf6ee"/>
      <stop offset="100%" stop-color="#edf3ef"/>
    </linearGradient>
    <linearGradient id="shirt" x1="0" y1="0" x2="1" y2="1">
      <stop offset="0%" stop-color="#4b8a76"/>
      <stop offset="100%" stop-color="#234a3e"/>
    </linearGradient>
  </defs>
  <rect width="800" height="520" fill="url(#bg)"/>
  <rect x="0" y="420" width="800" height="100" fill="#dbe7dd"/>
  <path d="M224 148H556" fill="none" stroke="#5f6d69" stroke-width="14" stroke-linecap="round"/>
  <circle cx="236" cy="148" r="20" fill="#db6c3f"/>
  <circle cx="544" cy="148" r="20" fill="#db6c3f"/>
  <ellipse cx="388" cy="176" rx="28" ry="24" fill="#e7b18b"/>
  <rect x="352" y="196" width="74" height="86" rx="30" fill="url(#shirt)"/>
  <rect x="356" y="274" width="66" height="34" rx="16" fill="#17382f"/>
  <path d="M352 214L280 174" fill="none" stroke="#e7b18b" stroke-width="18" stroke-linecap="round"/>
  <path d="M426 214L500 174" fill="none" stroke="#e7b18b" stroke-width="18" stroke-linecap="round"/>
  <path d="M374 308L308 352" fill="none" stroke="#17382f" stroke-width="24" stroke-linecap="round"/>
  <path d="M308 352L262 404" fill="none" stroke="#e7b18b" stroke-width="20" stroke-linecap="round"/>
  <path d="M404 308L474 352" fill="none" stroke="#17382f" stroke-width="24" stroke-linecap="round"/>
  <path d="M474 352L520 404" fill="none" stroke="#e7b18b" stroke-width="20" stroke-linecap="round"/>
  <ellipse cx="256" cy="408" rx="24" ry="10" fill="#203932"/>
  <ellipse cx="526" cy="408" rx="24" ry="10" fill="#203932"/>
  <path d="M278 214H500" fill="none" stroke="#6fab8d" stroke-width="8" stroke-dasharray="10 10"/>
  <text x="54" y="84" font-family="Arial, sans-serif" font-size="34" fill="#17382f">Barbell Squat</text>
  <text x="54" y="124" font-family="Arial, sans-serif" font-size="18" fill="#687369">Brace first • knees track over toes</text>
</svg>
